# xmcd
#
# Track frame offsets:
#	150
#	17093
#	36890
#	54098
#	69068
#	82674
#	97973
#	112620
#	126581
#	140013
#	156394
#	173009
#	186280
#	200445
#	214943
#
# Disc length: 3037 seconds
# Revision: 0
# Processed by: cddbd v1.5.2PL0 Copyright (c) Steve Scherf et al.
# Submitted via: dBpowerAMP V12.0
#
DISCID=c10bdb0f
DTITLE=Dianne Lindsay - All Things Country
DYEAR=1900
DGENRE=Country
TTITLE0=Part of Me
TTITLE1=R.M.
TTITLE2=Akubras in The Snow
TTITLE3=That Old Blue Dog of Mine
TTITLE4=Chimney in The Paddock
TTITLE5=On The Night Train
TTITLE6=Stokers Trail
TTITLE7=Last of The Sunshine Cowboys
TTITLE8=Dog Without his Mack
TTITLE9=Living in The Shadow of The Horseshoe
TTITLE10=Leave Him in The Longyard
TTITLE11=Fletcher's Place
TTITLE12=The Salvo
TTITLE13=Old Tobacco Tin
TTITLE14=Country Music My Friend
EXTD=
EXTT0=
EXTT1=
EXTT2=
EXTT3=
EXTT4=
EXTT5=
EXTT6=
EXTT7=
EXTT8=
EXTT9=
EXTT10=
EXTT11=
EXTT12=
EXTT13=
EXTT14=
PLAYORDER=
